G04 #@! TF.FileFunction,Legend,Bot*
%FSLAX46Y46*%
G04 Gerber Fmt 4.6, Leading zero omitted, Abs format (unit mm)*
G04 Created by KiCad (PCBNEW (2015-12-10 BZR 6367)-product) date Sun 25 Sep 2016 01:16:33 BST*
%MOMM*%
G01*
G04 APERTURE LIST*
%ADD10C,0.100000*%
%ADD11C,0.300000*%
%ADD12C,0.200000*%
%ADD13C,0.400000*%
G04 APERTURE END LIST*
D10*
D11*
X128983427Y-87800571D02*
X129483427Y-87086286D01*
X129840570Y-87800571D02*
X129840570Y-86300571D01*
X129269142Y-86300571D01*
X129126284Y-86372000D01*
X129054856Y-86443429D01*
X128983427Y-86586286D01*
X128983427Y-86800571D01*
X129054856Y-86943429D01*
X129126284Y-87014857D01*
X129269142Y-87086286D01*
X129840570Y-87086286D01*
X128411999Y-87372000D02*
X127697713Y-87372000D01*
X128554856Y-87800571D02*
X128054856Y-86300571D01*
X127554856Y-87800571D01*
X127054856Y-87800571D02*
X127054856Y-86300571D01*
X126340570Y-87800571D02*
X126340570Y-86300571D01*
X125483427Y-87800571D01*
X125483427Y-86300571D01*
X124769141Y-87800571D02*
X124769141Y-86300571D01*
X124054855Y-87800571D02*
X124054855Y-86300571D01*
X123197712Y-87800571D01*
X123197712Y-86300571D01*
X121697712Y-86372000D02*
X121840569Y-86300571D01*
X122054855Y-86300571D01*
X122269140Y-86372000D01*
X122411998Y-86514857D01*
X122483426Y-86657714D01*
X122554855Y-86943429D01*
X122554855Y-87157714D01*
X122483426Y-87443429D01*
X122411998Y-87586286D01*
X122269140Y-87729143D01*
X122054855Y-87800571D01*
X121911998Y-87800571D01*
X121697712Y-87729143D01*
X121626283Y-87657714D01*
X121626283Y-87157714D01*
X121911998Y-87157714D01*
X118983426Y-87657714D02*
X119054855Y-87729143D01*
X119269141Y-87800571D01*
X119411998Y-87800571D01*
X119626283Y-87729143D01*
X119769141Y-87586286D01*
X119840569Y-87443429D01*
X119911998Y-87157714D01*
X119911998Y-86943429D01*
X119840569Y-86657714D01*
X119769141Y-86514857D01*
X119626283Y-86372000D01*
X119411998Y-86300571D01*
X119269141Y-86300571D01*
X119054855Y-86372000D01*
X118983426Y-86443429D01*
X118411998Y-87372000D02*
X117697712Y-87372000D01*
X118554855Y-87800571D02*
X118054855Y-86300571D01*
X117554855Y-87800571D01*
X117269141Y-86300571D02*
X116411998Y-86300571D01*
X116840569Y-87800571D02*
X116840569Y-86300571D01*
X115983427Y-87729143D02*
X115769141Y-87800571D01*
X115411998Y-87800571D01*
X115269141Y-87729143D01*
X115197712Y-87657714D01*
X115126284Y-87514857D01*
X115126284Y-87372000D01*
X115197712Y-87229143D01*
X115269141Y-87157714D01*
X115411998Y-87086286D01*
X115697712Y-87014857D01*
X115840570Y-86943429D01*
X115911998Y-86872000D01*
X115983427Y-86729143D01*
X115983427Y-86586286D01*
X115911998Y-86443429D01*
X115840570Y-86372000D01*
X115697712Y-86300571D01*
X115340570Y-86300571D01*
X115126284Y-86372000D01*
X113340570Y-87800571D02*
X113340570Y-86300571D01*
X112769142Y-86300571D01*
X112626284Y-86372000D01*
X112554856Y-86443429D01*
X112483427Y-86586286D01*
X112483427Y-86800571D01*
X112554856Y-86943429D01*
X112626284Y-87014857D01*
X112769142Y-87086286D01*
X113340570Y-87086286D01*
X111554856Y-86300571D02*
X111269142Y-86300571D01*
X111126284Y-86372000D01*
X110983427Y-86514857D01*
X110911999Y-86800571D01*
X110911999Y-87300571D01*
X110983427Y-87586286D01*
X111126284Y-87729143D01*
X111269142Y-87800571D01*
X111554856Y-87800571D01*
X111697713Y-87729143D01*
X111840570Y-87586286D01*
X111911999Y-87300571D01*
X111911999Y-86800571D01*
X111840570Y-86514857D01*
X111697713Y-86372000D01*
X111554856Y-86300571D01*
X110411998Y-86300571D02*
X110054855Y-87800571D01*
X109769141Y-86729143D01*
X109483427Y-87800571D01*
X109126284Y-86300571D01*
X108554855Y-87014857D02*
X108054855Y-87014857D01*
X107840569Y-87800571D02*
X108554855Y-87800571D01*
X108554855Y-86300571D01*
X107840569Y-86300571D01*
X106340569Y-87800571D02*
X106840569Y-87086286D01*
X107197712Y-87800571D02*
X107197712Y-86300571D01*
X106626284Y-86300571D01*
X106483426Y-86372000D01*
X106411998Y-86443429D01*
X106340569Y-86586286D01*
X106340569Y-86800571D01*
X106411998Y-86943429D01*
X106483426Y-87014857D01*
X106626284Y-87086286D01*
X107197712Y-87086286D01*
X104626284Y-87729143D02*
X104411998Y-87800571D01*
X104054855Y-87800571D01*
X103911998Y-87729143D01*
X103840569Y-87657714D01*
X103769141Y-87514857D01*
X103769141Y-87372000D01*
X103840569Y-87229143D01*
X103911998Y-87157714D01*
X104054855Y-87086286D01*
X104340569Y-87014857D01*
X104483427Y-86943429D01*
X104554855Y-86872000D01*
X104626284Y-86729143D01*
X104626284Y-86586286D01*
X104554855Y-86443429D01*
X104483427Y-86372000D01*
X104340569Y-86300571D01*
X103983427Y-86300571D01*
X103769141Y-86372000D01*
X103126284Y-86300571D02*
X103126284Y-87514857D01*
X103054856Y-87657714D01*
X102983427Y-87729143D01*
X102840570Y-87800571D01*
X102554856Y-87800571D01*
X102411998Y-87729143D01*
X102340570Y-87657714D01*
X102269141Y-87514857D01*
X102269141Y-86300571D01*
X101554855Y-87800571D02*
X101554855Y-86300571D01*
X100983427Y-86300571D01*
X100840569Y-86372000D01*
X100769141Y-86443429D01*
X100697712Y-86586286D01*
X100697712Y-86800571D01*
X100769141Y-86943429D01*
X100840569Y-87014857D01*
X100983427Y-87086286D01*
X101554855Y-87086286D01*
X100054855Y-87800571D02*
X100054855Y-86300571D01*
X99483427Y-86300571D01*
X99340569Y-86372000D01*
X99269141Y-86443429D01*
X99197712Y-86586286D01*
X99197712Y-86800571D01*
X99269141Y-86943429D01*
X99340569Y-87014857D01*
X99483427Y-87086286D01*
X100054855Y-87086286D01*
X97840569Y-87800571D02*
X98554855Y-87800571D01*
X98554855Y-86300571D01*
X97054855Y-87086286D02*
X97054855Y-87800571D01*
X97554855Y-86300571D02*
X97054855Y-87086286D01*
X96554855Y-86300571D01*
X95054855Y-86800571D02*
X94697712Y-87800571D01*
X94340570Y-86800571D01*
X93197713Y-87729143D02*
X93340570Y-87800571D01*
X93626284Y-87800571D01*
X93769141Y-87729143D01*
X93840570Y-87586286D01*
X93840570Y-87014857D01*
X93769141Y-86872000D01*
X93626284Y-86800571D01*
X93340570Y-86800571D01*
X93197713Y-86872000D01*
X93126284Y-87014857D01*
X93126284Y-87157714D01*
X93840570Y-87300571D01*
X92483427Y-87800571D02*
X92483427Y-86800571D01*
X92483427Y-87086286D02*
X92411999Y-86943429D01*
X92340570Y-86872000D01*
X92197713Y-86800571D01*
X92054856Y-86800571D01*
X89626285Y-87800571D02*
X90483428Y-87800571D01*
X90054856Y-87800571D02*
X90054856Y-86300571D01*
X90197713Y-86514857D01*
X90340571Y-86657714D01*
X90483428Y-86729143D01*
X88983428Y-87657714D02*
X88912000Y-87729143D01*
X88983428Y-87800571D01*
X89054857Y-87729143D01*
X88983428Y-87657714D01*
X88983428Y-87800571D01*
X87983428Y-86300571D02*
X87840571Y-86300571D01*
X87697714Y-86372000D01*
X87626285Y-86443429D01*
X87554856Y-86586286D01*
X87483428Y-86872000D01*
X87483428Y-87229143D01*
X87554856Y-87514857D01*
X87626285Y-87657714D01*
X87697714Y-87729143D01*
X87840571Y-87800571D01*
X87983428Y-87800571D01*
X88126285Y-87729143D01*
X88197714Y-87657714D01*
X88269142Y-87514857D01*
X88340571Y-87229143D01*
X88340571Y-86872000D01*
X88269142Y-86586286D01*
X88197714Y-86443429D01*
X88126285Y-86372000D01*
X87983428Y-86300571D01*
X86769143Y-87729143D02*
X86769143Y-87800571D01*
X86840571Y-87943429D01*
X86912000Y-88014857D01*
X84554857Y-86300571D02*
X84554857Y-87372000D01*
X84626285Y-87586286D01*
X84769142Y-87729143D01*
X84983428Y-87800571D01*
X85126285Y-87800571D01*
X83197714Y-87800571D02*
X83197714Y-87014857D01*
X83269143Y-86872000D01*
X83412000Y-86800571D01*
X83697714Y-86800571D01*
X83840571Y-86872000D01*
X83197714Y-87729143D02*
X83340571Y-87800571D01*
X83697714Y-87800571D01*
X83840571Y-87729143D01*
X83912000Y-87586286D01*
X83912000Y-87443429D01*
X83840571Y-87300571D01*
X83697714Y-87229143D01*
X83340571Y-87229143D01*
X83197714Y-87157714D01*
X82483428Y-87800571D02*
X82483428Y-86300571D01*
X82340571Y-87229143D02*
X81912000Y-87800571D01*
X81912000Y-86800571D02*
X82483428Y-87372000D01*
X80626285Y-86800571D02*
X80626285Y-87800571D01*
X81269142Y-86800571D02*
X81269142Y-87586286D01*
X81197714Y-87729143D01*
X81054856Y-87800571D01*
X80840571Y-87800571D01*
X80697714Y-87729143D01*
X80626285Y-87657714D01*
X79911999Y-87800571D02*
X79911999Y-86300571D01*
X79911999Y-86872000D02*
X79769142Y-86800571D01*
X79483428Y-86800571D01*
X79340571Y-86872000D01*
X79269142Y-86943429D01*
X79197713Y-87086286D01*
X79197713Y-87514857D01*
X79269142Y-87657714D01*
X79340571Y-87729143D01*
X79483428Y-87800571D01*
X79769142Y-87800571D01*
X79911999Y-87729143D01*
X77411999Y-87800571D02*
X77411999Y-86300571D01*
X76554856Y-87800571D01*
X76554856Y-86300571D01*
X75269142Y-87729143D02*
X75411999Y-87800571D01*
X75697713Y-87800571D01*
X75840570Y-87729143D01*
X75911999Y-87586286D01*
X75911999Y-87014857D01*
X75840570Y-86872000D01*
X75697713Y-86800571D01*
X75411999Y-86800571D01*
X75269142Y-86872000D01*
X75197713Y-87014857D01*
X75197713Y-87157714D01*
X75911999Y-87300571D01*
X73911999Y-87800571D02*
X73911999Y-86300571D01*
X73911999Y-87729143D02*
X74054856Y-87800571D01*
X74340570Y-87800571D01*
X74483428Y-87729143D01*
X74554856Y-87657714D01*
X74626285Y-87514857D01*
X74626285Y-87086286D01*
X74554856Y-86943429D01*
X74483428Y-86872000D01*
X74340570Y-86800571D01*
X74054856Y-86800571D01*
X73911999Y-86872000D01*
X73197713Y-87800571D02*
X73197713Y-86300571D01*
X73197713Y-86872000D02*
X73054856Y-86800571D01*
X72769142Y-86800571D01*
X72626285Y-86872000D01*
X72554856Y-86943429D01*
X72483427Y-87086286D01*
X72483427Y-87514857D01*
X72554856Y-87657714D01*
X72626285Y-87729143D01*
X72769142Y-87800571D01*
X73054856Y-87800571D01*
X73197713Y-87729143D01*
X71197713Y-87800571D02*
X71197713Y-87014857D01*
X71269142Y-86872000D01*
X71411999Y-86800571D01*
X71697713Y-86800571D01*
X71840570Y-86872000D01*
X71197713Y-87729143D02*
X71340570Y-87800571D01*
X71697713Y-87800571D01*
X71840570Y-87729143D01*
X71911999Y-87586286D01*
X71911999Y-87443429D01*
X71840570Y-87300571D01*
X71697713Y-87229143D01*
X71340570Y-87229143D01*
X71197713Y-87157714D01*
X70269141Y-87800571D02*
X70411999Y-87729143D01*
X70483427Y-87586286D01*
X70483427Y-86300571D01*
X68626285Y-86443429D02*
X68554856Y-86372000D01*
X68411999Y-86300571D01*
X68054856Y-86300571D01*
X67911999Y-86372000D01*
X67840570Y-86443429D01*
X67769142Y-86586286D01*
X67769142Y-86729143D01*
X67840570Y-86943429D01*
X68697713Y-87800571D01*
X67769142Y-87800571D01*
X66840571Y-86300571D02*
X66697714Y-86300571D01*
X66554857Y-86372000D01*
X66483428Y-86443429D01*
X66411999Y-86586286D01*
X66340571Y-86872000D01*
X66340571Y-87229143D01*
X66411999Y-87514857D01*
X66483428Y-87657714D01*
X66554857Y-87729143D01*
X66697714Y-87800571D01*
X66840571Y-87800571D01*
X66983428Y-87729143D01*
X67054857Y-87657714D01*
X67126285Y-87514857D01*
X67197714Y-87229143D01*
X67197714Y-86872000D01*
X67126285Y-86586286D01*
X67054857Y-86443429D01*
X66983428Y-86372000D01*
X66840571Y-86300571D01*
X64912000Y-87800571D02*
X65769143Y-87800571D01*
X65340571Y-87800571D02*
X65340571Y-86300571D01*
X65483428Y-86514857D01*
X65626286Y-86657714D01*
X65769143Y-86729143D01*
X63626286Y-86300571D02*
X63912000Y-86300571D01*
X64054857Y-86372000D01*
X64126286Y-86443429D01*
X64269143Y-86657714D01*
X64340572Y-86943429D01*
X64340572Y-87514857D01*
X64269143Y-87657714D01*
X64197715Y-87729143D01*
X64054857Y-87800571D01*
X63769143Y-87800571D01*
X63626286Y-87729143D01*
X63554857Y-87657714D01*
X63483429Y-87514857D01*
X63483429Y-87157714D01*
X63554857Y-87014857D01*
X63626286Y-86943429D01*
X63769143Y-86872000D01*
X64054857Y-86872000D01*
X64197715Y-86943429D01*
X64269143Y-87014857D01*
X64340572Y-87157714D01*
X62769144Y-87729143D02*
X62769144Y-87800571D01*
X62840572Y-87943429D01*
X62912001Y-88014857D01*
X60126286Y-87657714D02*
X60197715Y-87729143D01*
X60412001Y-87800571D01*
X60554858Y-87800571D01*
X60769143Y-87729143D01*
X60912001Y-87586286D01*
X60983429Y-87443429D01*
X61054858Y-87157714D01*
X61054858Y-86943429D01*
X60983429Y-86657714D01*
X60912001Y-86514857D01*
X60769143Y-86372000D01*
X60554858Y-86300571D01*
X60412001Y-86300571D01*
X60197715Y-86372000D01*
X60126286Y-86443429D01*
X58626286Y-87657714D02*
X58697715Y-87729143D01*
X58912001Y-87800571D01*
X59054858Y-87800571D01*
X59269143Y-87729143D01*
X59412001Y-87586286D01*
X59483429Y-87443429D01*
X59554858Y-87157714D01*
X59554858Y-86943429D01*
X59483429Y-86657714D01*
X59412001Y-86514857D01*
X59269143Y-86372000D01*
X59054858Y-86300571D01*
X58912001Y-86300571D01*
X58697715Y-86372000D01*
X58626286Y-86443429D01*
X57983429Y-87229143D02*
X56840572Y-87229143D01*
X55626286Y-87014857D02*
X55412000Y-87086286D01*
X55340572Y-87157714D01*
X55269143Y-87300571D01*
X55269143Y-87514857D01*
X55340572Y-87657714D01*
X55412000Y-87729143D01*
X55554858Y-87800571D01*
X56126286Y-87800571D01*
X56126286Y-86300571D01*
X55626286Y-86300571D01*
X55483429Y-86372000D01*
X55412000Y-86443429D01*
X55340572Y-86586286D01*
X55340572Y-86729143D01*
X55412000Y-86872000D01*
X55483429Y-86943429D01*
X55626286Y-87014857D01*
X56126286Y-87014857D01*
X54340572Y-87086286D02*
X54340572Y-87800571D01*
X54840572Y-86300571D02*
X54340572Y-87086286D01*
X53840572Y-86300571D01*
X53340572Y-87229143D02*
X52197715Y-87229143D01*
X51554858Y-87729143D02*
X51340572Y-87800571D01*
X50983429Y-87800571D01*
X50840572Y-87729143D01*
X50769143Y-87657714D01*
X50697715Y-87514857D01*
X50697715Y-87372000D01*
X50769143Y-87229143D01*
X50840572Y-87157714D01*
X50983429Y-87086286D01*
X51269143Y-87014857D01*
X51412001Y-86943429D01*
X51483429Y-86872000D01*
X51554858Y-86729143D01*
X51554858Y-86586286D01*
X51483429Y-86443429D01*
X51412001Y-86372000D01*
X51269143Y-86300571D01*
X50912001Y-86300571D01*
X50697715Y-86372000D01*
X50126287Y-87372000D02*
X49412001Y-87372000D01*
X50269144Y-87800571D02*
X49769144Y-86300571D01*
X49269144Y-87800571D01*
D12*
X128117714Y-67218000D02*
X128232000Y-67160857D01*
X128403429Y-67160857D01*
X128574857Y-67218000D01*
X128689143Y-67332286D01*
X128746286Y-67446571D01*
X128803429Y-67675143D01*
X128803429Y-67846571D01*
X128746286Y-68075143D01*
X128689143Y-68189429D01*
X128574857Y-68303714D01*
X128403429Y-68360857D01*
X128289143Y-68360857D01*
X128117714Y-68303714D01*
X128060571Y-68246571D01*
X128060571Y-67846571D01*
X128289143Y-67846571D01*
X127546286Y-68360857D02*
X127546286Y-67160857D01*
X126860571Y-68360857D01*
X126860571Y-67160857D01*
X126289143Y-68360857D02*
X126289143Y-67160857D01*
X126003428Y-67160857D01*
X125832000Y-67218000D01*
X125717714Y-67332286D01*
X125660571Y-67446571D01*
X125603428Y-67675143D01*
X125603428Y-67846571D01*
X125660571Y-68075143D01*
X125717714Y-68189429D01*
X125832000Y-68303714D01*
X126003428Y-68360857D01*
X126289143Y-68360857D01*
X128746286Y-65871714D02*
X127832000Y-65871714D01*
X128289143Y-66328857D02*
X128289143Y-65414571D01*
X126689143Y-65128857D02*
X127260572Y-65128857D01*
X127317715Y-65700286D01*
X127260572Y-65643143D01*
X127146286Y-65586000D01*
X126860572Y-65586000D01*
X126746286Y-65643143D01*
X126689143Y-65700286D01*
X126632000Y-65814571D01*
X126632000Y-66100286D01*
X126689143Y-66214571D01*
X126746286Y-66271714D01*
X126860572Y-66328857D01*
X127146286Y-66328857D01*
X127260572Y-66271714D01*
X127317715Y-66214571D01*
X126289143Y-65128857D02*
X125889143Y-66328857D01*
X125489143Y-65128857D01*
X128060571Y-62264857D02*
X128460571Y-61693429D01*
X128746286Y-62264857D02*
X128746286Y-61064857D01*
X128289143Y-61064857D01*
X128174857Y-61122000D01*
X128117714Y-61179143D01*
X128060571Y-61293429D01*
X128060571Y-61464857D01*
X128117714Y-61579143D01*
X128174857Y-61636286D01*
X128289143Y-61693429D01*
X128746286Y-61693429D01*
X127546286Y-61636286D02*
X127146286Y-61636286D01*
X126974857Y-62264857D02*
X127546286Y-62264857D01*
X127546286Y-61064857D01*
X126974857Y-61064857D01*
X125889143Y-62264857D02*
X126460572Y-62264857D01*
X126460572Y-61064857D01*
X125546286Y-61922000D02*
X124974857Y-61922000D01*
X125660571Y-62264857D02*
X125260571Y-61064857D01*
X124860571Y-62264857D01*
X124232000Y-61693429D02*
X124232000Y-62264857D01*
X124632000Y-61064857D02*
X124232000Y-61693429D01*
X123832000Y-61064857D01*
D11*
X135822571Y-62341429D02*
X136822571Y-62341429D01*
X135251143Y-61984286D02*
X136322571Y-61627143D01*
X136322571Y-62555715D01*
X135322571Y-63412857D02*
X135322571Y-63555714D01*
X135394000Y-63698571D01*
X135465429Y-63770000D01*
X135608286Y-63841429D01*
X135894000Y-63912857D01*
X136251143Y-63912857D01*
X136536857Y-63841429D01*
X136679714Y-63770000D01*
X136751143Y-63698571D01*
X136822571Y-63555714D01*
X136822571Y-63412857D01*
X136751143Y-63270000D01*
X136679714Y-63198571D01*
X136536857Y-63127143D01*
X136251143Y-63055714D01*
X135894000Y-63055714D01*
X135608286Y-63127143D01*
X135465429Y-63198571D01*
X135394000Y-63270000D01*
X135322571Y-63412857D01*
X136822571Y-64555714D02*
X135822571Y-64555714D01*
X135965429Y-64555714D02*
X135894000Y-64627142D01*
X135822571Y-64770000D01*
X135822571Y-64984285D01*
X135894000Y-65127142D01*
X136036857Y-65198571D01*
X136822571Y-65198571D01*
X136036857Y-65198571D02*
X135894000Y-65270000D01*
X135822571Y-65412857D01*
X135822571Y-65627142D01*
X135894000Y-65770000D01*
X136036857Y-65841428D01*
X136822571Y-65841428D01*
X136822571Y-66555714D02*
X135822571Y-66555714D01*
X135965429Y-66555714D02*
X135894000Y-66627142D01*
X135822571Y-66770000D01*
X135822571Y-66984285D01*
X135894000Y-67127142D01*
X136036857Y-67198571D01*
X136822571Y-67198571D01*
X136036857Y-67198571D02*
X135894000Y-67270000D01*
X135822571Y-67412857D01*
X135822571Y-67627142D01*
X135894000Y-67770000D01*
X136036857Y-67841428D01*
X136822571Y-67841428D01*
D13*
X134747000Y-83058000D02*
X134747000Y-46609000D01*
D11*
X93341428Y-43858571D02*
X93055713Y-43858571D01*
X92912856Y-43787143D01*
X92841428Y-43715714D01*
X92698570Y-43501429D01*
X92627142Y-43215714D01*
X92627142Y-42644286D01*
X92698570Y-42501429D01*
X92769999Y-42430000D01*
X92912856Y-42358571D01*
X93198570Y-42358571D01*
X93341428Y-42430000D01*
X93412856Y-42501429D01*
X93484285Y-42644286D01*
X93484285Y-43001429D01*
X93412856Y-43144286D01*
X93341428Y-43215714D01*
X93198570Y-43287143D01*
X92912856Y-43287143D01*
X92769999Y-43215714D01*
X92698570Y-43144286D01*
X92627142Y-43001429D01*
X91698571Y-42358571D02*
X91555714Y-42358571D01*
X91412857Y-42430000D01*
X91341428Y-42501429D01*
X91269999Y-42644286D01*
X91198571Y-42930000D01*
X91198571Y-43287143D01*
X91269999Y-43572857D01*
X91341428Y-43715714D01*
X91412857Y-43787143D01*
X91555714Y-43858571D01*
X91698571Y-43858571D01*
X91841428Y-43787143D01*
X91912857Y-43715714D01*
X91984285Y-43572857D01*
X92055714Y-43287143D01*
X92055714Y-42930000D01*
X91984285Y-42644286D01*
X91912857Y-42501429D01*
X91841428Y-42430000D01*
X91698571Y-42358571D01*
X89412857Y-43858571D02*
X89412857Y-42858571D01*
X89412857Y-43001429D02*
X89341429Y-42930000D01*
X89198571Y-42858571D01*
X88984286Y-42858571D01*
X88841429Y-42930000D01*
X88770000Y-43072857D01*
X88770000Y-43858571D01*
X88770000Y-43072857D02*
X88698571Y-42930000D01*
X88555714Y-42858571D01*
X88341429Y-42858571D01*
X88198571Y-42930000D01*
X88127143Y-43072857D01*
X88127143Y-43858571D01*
X87412857Y-43858571D02*
X87412857Y-42858571D01*
X87412857Y-43001429D02*
X87341429Y-42930000D01*
X87198571Y-42858571D01*
X86984286Y-42858571D01*
X86841429Y-42930000D01*
X86770000Y-43072857D01*
X86770000Y-43858571D01*
X86770000Y-43072857D02*
X86698571Y-42930000D01*
X86555714Y-42858571D01*
X86341429Y-42858571D01*
X86198571Y-42930000D01*
X86127143Y-43072857D01*
X86127143Y-43858571D01*
D13*
X133096000Y-44704000D02*
X46736000Y-44704000D01*
M02*
