M48
METRIC,TZ
T1C0.701
T2C0.800
T3C1.000
T4C1.200
T5C1.300
T6C2.700
T7C3.200
%
G90
G05
T1
X131445Y-61770
X131445Y-63769
X131445Y-65771
X131445Y-67772
T2
X59175Y-46060
X66675Y-48260
T3
X91440Y-50800
X91440Y-66040
X99060Y-83820
X101600Y-83820
X119440Y-50800
X119440Y-58420
T4
X83820Y-83820
X91440Y-83820
T5
X46990Y-51435
X46990Y-56435
X46990Y-61435
X46990Y-67945
X46990Y-72945
X46990Y-77945
X60960Y-53700
X60960Y-76200
X73660Y-53700
X73660Y-76200
T6
X60960Y-64950
X73660Y-64950
T7
X44770Y-44770
X44770Y-84770
X134770Y-44770
X134770Y-84770
T0
M30
