G04 #@! TF.FileFunction,Legend,Top*
%FSLAX46Y46*%
G04 Gerber Fmt 4.6, Leading zero omitted, Abs format (unit mm)*
G04 Created by KiCad (PCBNEW (2015-12-10 BZR 6367)-product) date Sun 25 Sep 2016 01:16:33 BST*
%MOMM*%
G01*
G04 APERTURE LIST*
%ADD10C,0.100000*%
%ADD11C,0.300000*%
%ADD12C,0.200000*%
%ADD13C,0.500000*%
%ADD14C,0.381000*%
%ADD15C,0.150000*%
%ADD16C,0.110000*%
G04 APERTURE END LIST*
D10*
D11*
X50213573Y-87673571D02*
X49713573Y-86959286D01*
X49356430Y-87673571D02*
X49356430Y-86173571D01*
X49927858Y-86173571D01*
X50070716Y-86245000D01*
X50142144Y-86316429D01*
X50213573Y-86459286D01*
X50213573Y-86673571D01*
X50142144Y-86816429D01*
X50070716Y-86887857D01*
X49927858Y-86959286D01*
X49356430Y-86959286D01*
X50785001Y-87245000D02*
X51499287Y-87245000D01*
X50642144Y-87673571D02*
X51142144Y-86173571D01*
X51642144Y-87673571D01*
X52142144Y-87673571D02*
X52142144Y-86173571D01*
X52856430Y-87673571D02*
X52856430Y-86173571D01*
X53713573Y-87673571D01*
X53713573Y-86173571D01*
X54427859Y-87673571D02*
X54427859Y-86173571D01*
X55142145Y-87673571D02*
X55142145Y-86173571D01*
X55999288Y-87673571D01*
X55999288Y-86173571D01*
X57499288Y-86245000D02*
X57356431Y-86173571D01*
X57142145Y-86173571D01*
X56927860Y-86245000D01*
X56785002Y-86387857D01*
X56713574Y-86530714D01*
X56642145Y-86816429D01*
X56642145Y-87030714D01*
X56713574Y-87316429D01*
X56785002Y-87459286D01*
X56927860Y-87602143D01*
X57142145Y-87673571D01*
X57285002Y-87673571D01*
X57499288Y-87602143D01*
X57570717Y-87530714D01*
X57570717Y-87030714D01*
X57285002Y-87030714D01*
X60213574Y-87530714D02*
X60142145Y-87602143D01*
X59927859Y-87673571D01*
X59785002Y-87673571D01*
X59570717Y-87602143D01*
X59427859Y-87459286D01*
X59356431Y-87316429D01*
X59285002Y-87030714D01*
X59285002Y-86816429D01*
X59356431Y-86530714D01*
X59427859Y-86387857D01*
X59570717Y-86245000D01*
X59785002Y-86173571D01*
X59927859Y-86173571D01*
X60142145Y-86245000D01*
X60213574Y-86316429D01*
X60785002Y-87245000D02*
X61499288Y-87245000D01*
X60642145Y-87673571D02*
X61142145Y-86173571D01*
X61642145Y-87673571D01*
X61927859Y-86173571D02*
X62785002Y-86173571D01*
X62356431Y-87673571D02*
X62356431Y-86173571D01*
X63213573Y-87602143D02*
X63427859Y-87673571D01*
X63785002Y-87673571D01*
X63927859Y-87602143D01*
X63999288Y-87530714D01*
X64070716Y-87387857D01*
X64070716Y-87245000D01*
X63999288Y-87102143D01*
X63927859Y-87030714D01*
X63785002Y-86959286D01*
X63499288Y-86887857D01*
X63356430Y-86816429D01*
X63285002Y-86745000D01*
X63213573Y-86602143D01*
X63213573Y-86459286D01*
X63285002Y-86316429D01*
X63356430Y-86245000D01*
X63499288Y-86173571D01*
X63856430Y-86173571D01*
X64070716Y-86245000D01*
X65856430Y-87673571D02*
X65856430Y-86173571D01*
X66427858Y-86173571D01*
X66570716Y-86245000D01*
X66642144Y-86316429D01*
X66713573Y-86459286D01*
X66713573Y-86673571D01*
X66642144Y-86816429D01*
X66570716Y-86887857D01*
X66427858Y-86959286D01*
X65856430Y-86959286D01*
X67642144Y-86173571D02*
X67927858Y-86173571D01*
X68070716Y-86245000D01*
X68213573Y-86387857D01*
X68285001Y-86673571D01*
X68285001Y-87173571D01*
X68213573Y-87459286D01*
X68070716Y-87602143D01*
X67927858Y-87673571D01*
X67642144Y-87673571D01*
X67499287Y-87602143D01*
X67356430Y-87459286D01*
X67285001Y-87173571D01*
X67285001Y-86673571D01*
X67356430Y-86387857D01*
X67499287Y-86245000D01*
X67642144Y-86173571D01*
X68785002Y-86173571D02*
X69142145Y-87673571D01*
X69427859Y-86602143D01*
X69713573Y-87673571D01*
X70070716Y-86173571D01*
X70642145Y-86887857D02*
X71142145Y-86887857D01*
X71356431Y-87673571D02*
X70642145Y-87673571D01*
X70642145Y-86173571D01*
X71356431Y-86173571D01*
X72856431Y-87673571D02*
X72356431Y-86959286D01*
X71999288Y-87673571D02*
X71999288Y-86173571D01*
X72570716Y-86173571D01*
X72713574Y-86245000D01*
X72785002Y-86316429D01*
X72856431Y-86459286D01*
X72856431Y-86673571D01*
X72785002Y-86816429D01*
X72713574Y-86887857D01*
X72570716Y-86959286D01*
X71999288Y-86959286D01*
X74570716Y-87602143D02*
X74785002Y-87673571D01*
X75142145Y-87673571D01*
X75285002Y-87602143D01*
X75356431Y-87530714D01*
X75427859Y-87387857D01*
X75427859Y-87245000D01*
X75356431Y-87102143D01*
X75285002Y-87030714D01*
X75142145Y-86959286D01*
X74856431Y-86887857D01*
X74713573Y-86816429D01*
X74642145Y-86745000D01*
X74570716Y-86602143D01*
X74570716Y-86459286D01*
X74642145Y-86316429D01*
X74713573Y-86245000D01*
X74856431Y-86173571D01*
X75213573Y-86173571D01*
X75427859Y-86245000D01*
X76070716Y-86173571D02*
X76070716Y-87387857D01*
X76142144Y-87530714D01*
X76213573Y-87602143D01*
X76356430Y-87673571D01*
X76642144Y-87673571D01*
X76785002Y-87602143D01*
X76856430Y-87530714D01*
X76927859Y-87387857D01*
X76927859Y-86173571D01*
X77642145Y-87673571D02*
X77642145Y-86173571D01*
X78213573Y-86173571D01*
X78356431Y-86245000D01*
X78427859Y-86316429D01*
X78499288Y-86459286D01*
X78499288Y-86673571D01*
X78427859Y-86816429D01*
X78356431Y-86887857D01*
X78213573Y-86959286D01*
X77642145Y-86959286D01*
X79142145Y-87673571D02*
X79142145Y-86173571D01*
X79713573Y-86173571D01*
X79856431Y-86245000D01*
X79927859Y-86316429D01*
X79999288Y-86459286D01*
X79999288Y-86673571D01*
X79927859Y-86816429D01*
X79856431Y-86887857D01*
X79713573Y-86959286D01*
X79142145Y-86959286D01*
X81356431Y-87673571D02*
X80642145Y-87673571D01*
X80642145Y-86173571D01*
X82142145Y-86959286D02*
X82142145Y-87673571D01*
X81642145Y-86173571D02*
X82142145Y-86959286D01*
X82642145Y-86173571D01*
X84142145Y-86673571D02*
X84499288Y-87673571D01*
X84856430Y-86673571D01*
X85999287Y-87602143D02*
X85856430Y-87673571D01*
X85570716Y-87673571D01*
X85427859Y-87602143D01*
X85356430Y-87459286D01*
X85356430Y-86887857D01*
X85427859Y-86745000D01*
X85570716Y-86673571D01*
X85856430Y-86673571D01*
X85999287Y-86745000D01*
X86070716Y-86887857D01*
X86070716Y-87030714D01*
X85356430Y-87173571D01*
X86713573Y-87673571D02*
X86713573Y-86673571D01*
X86713573Y-86959286D02*
X86785001Y-86816429D01*
X86856430Y-86745000D01*
X86999287Y-86673571D01*
X87142144Y-86673571D01*
X89570715Y-87673571D02*
X88713572Y-87673571D01*
X89142144Y-87673571D02*
X89142144Y-86173571D01*
X88999287Y-86387857D01*
X88856429Y-86530714D01*
X88713572Y-86602143D01*
X90213572Y-87530714D02*
X90285000Y-87602143D01*
X90213572Y-87673571D01*
X90142143Y-87602143D01*
X90213572Y-87530714D01*
X90213572Y-87673571D01*
X91213572Y-86173571D02*
X91356429Y-86173571D01*
X91499286Y-86245000D01*
X91570715Y-86316429D01*
X91642144Y-86459286D01*
X91713572Y-86745000D01*
X91713572Y-87102143D01*
X91642144Y-87387857D01*
X91570715Y-87530714D01*
X91499286Y-87602143D01*
X91356429Y-87673571D01*
X91213572Y-87673571D01*
X91070715Y-87602143D01*
X90999286Y-87530714D01*
X90927858Y-87387857D01*
X90856429Y-87102143D01*
X90856429Y-86745000D01*
X90927858Y-86459286D01*
X90999286Y-86316429D01*
X91070715Y-86245000D01*
X91213572Y-86173571D01*
X92427857Y-87602143D02*
X92427857Y-87673571D01*
X92356429Y-87816429D01*
X92285000Y-87887857D01*
X94642143Y-86173571D02*
X94642143Y-87245000D01*
X94570715Y-87459286D01*
X94427858Y-87602143D01*
X94213572Y-87673571D01*
X94070715Y-87673571D01*
X95999286Y-87673571D02*
X95999286Y-86887857D01*
X95927857Y-86745000D01*
X95785000Y-86673571D01*
X95499286Y-86673571D01*
X95356429Y-86745000D01*
X95999286Y-87602143D02*
X95856429Y-87673571D01*
X95499286Y-87673571D01*
X95356429Y-87602143D01*
X95285000Y-87459286D01*
X95285000Y-87316429D01*
X95356429Y-87173571D01*
X95499286Y-87102143D01*
X95856429Y-87102143D01*
X95999286Y-87030714D01*
X96713572Y-87673571D02*
X96713572Y-86173571D01*
X96856429Y-87102143D02*
X97285000Y-87673571D01*
X97285000Y-86673571D02*
X96713572Y-87245000D01*
X98570715Y-86673571D02*
X98570715Y-87673571D01*
X97927858Y-86673571D02*
X97927858Y-87459286D01*
X97999286Y-87602143D01*
X98142144Y-87673571D01*
X98356429Y-87673571D01*
X98499286Y-87602143D01*
X98570715Y-87530714D01*
X99285001Y-87673571D02*
X99285001Y-86173571D01*
X99285001Y-86745000D02*
X99427858Y-86673571D01*
X99713572Y-86673571D01*
X99856429Y-86745000D01*
X99927858Y-86816429D01*
X99999287Y-86959286D01*
X99999287Y-87387857D01*
X99927858Y-87530714D01*
X99856429Y-87602143D01*
X99713572Y-87673571D01*
X99427858Y-87673571D01*
X99285001Y-87602143D01*
X101785001Y-87673571D02*
X101785001Y-86173571D01*
X102642144Y-87673571D01*
X102642144Y-86173571D01*
X103927858Y-87602143D02*
X103785001Y-87673571D01*
X103499287Y-87673571D01*
X103356430Y-87602143D01*
X103285001Y-87459286D01*
X103285001Y-86887857D01*
X103356430Y-86745000D01*
X103499287Y-86673571D01*
X103785001Y-86673571D01*
X103927858Y-86745000D01*
X103999287Y-86887857D01*
X103999287Y-87030714D01*
X103285001Y-87173571D01*
X105285001Y-87673571D02*
X105285001Y-86173571D01*
X105285001Y-87602143D02*
X105142144Y-87673571D01*
X104856430Y-87673571D01*
X104713572Y-87602143D01*
X104642144Y-87530714D01*
X104570715Y-87387857D01*
X104570715Y-86959286D01*
X104642144Y-86816429D01*
X104713572Y-86745000D01*
X104856430Y-86673571D01*
X105142144Y-86673571D01*
X105285001Y-86745000D01*
X105999287Y-87673571D02*
X105999287Y-86173571D01*
X105999287Y-86745000D02*
X106142144Y-86673571D01*
X106427858Y-86673571D01*
X106570715Y-86745000D01*
X106642144Y-86816429D01*
X106713573Y-86959286D01*
X106713573Y-87387857D01*
X106642144Y-87530714D01*
X106570715Y-87602143D01*
X106427858Y-87673571D01*
X106142144Y-87673571D01*
X105999287Y-87602143D01*
X107999287Y-87673571D02*
X107999287Y-86887857D01*
X107927858Y-86745000D01*
X107785001Y-86673571D01*
X107499287Y-86673571D01*
X107356430Y-86745000D01*
X107999287Y-87602143D02*
X107856430Y-87673571D01*
X107499287Y-87673571D01*
X107356430Y-87602143D01*
X107285001Y-87459286D01*
X107285001Y-87316429D01*
X107356430Y-87173571D01*
X107499287Y-87102143D01*
X107856430Y-87102143D01*
X107999287Y-87030714D01*
X108927859Y-87673571D02*
X108785001Y-87602143D01*
X108713573Y-87459286D01*
X108713573Y-86173571D01*
X110570715Y-86316429D02*
X110642144Y-86245000D01*
X110785001Y-86173571D01*
X111142144Y-86173571D01*
X111285001Y-86245000D01*
X111356430Y-86316429D01*
X111427858Y-86459286D01*
X111427858Y-86602143D01*
X111356430Y-86816429D01*
X110499287Y-87673571D01*
X111427858Y-87673571D01*
X112356429Y-86173571D02*
X112499286Y-86173571D01*
X112642143Y-86245000D01*
X112713572Y-86316429D01*
X112785001Y-86459286D01*
X112856429Y-86745000D01*
X112856429Y-87102143D01*
X112785001Y-87387857D01*
X112713572Y-87530714D01*
X112642143Y-87602143D01*
X112499286Y-87673571D01*
X112356429Y-87673571D01*
X112213572Y-87602143D01*
X112142143Y-87530714D01*
X112070715Y-87387857D01*
X111999286Y-87102143D01*
X111999286Y-86745000D01*
X112070715Y-86459286D01*
X112142143Y-86316429D01*
X112213572Y-86245000D01*
X112356429Y-86173571D01*
X114285000Y-87673571D02*
X113427857Y-87673571D01*
X113856429Y-87673571D02*
X113856429Y-86173571D01*
X113713572Y-86387857D01*
X113570714Y-86530714D01*
X113427857Y-86602143D01*
X115570714Y-86173571D02*
X115285000Y-86173571D01*
X115142143Y-86245000D01*
X115070714Y-86316429D01*
X114927857Y-86530714D01*
X114856428Y-86816429D01*
X114856428Y-87387857D01*
X114927857Y-87530714D01*
X114999285Y-87602143D01*
X115142143Y-87673571D01*
X115427857Y-87673571D01*
X115570714Y-87602143D01*
X115642143Y-87530714D01*
X115713571Y-87387857D01*
X115713571Y-87030714D01*
X115642143Y-86887857D01*
X115570714Y-86816429D01*
X115427857Y-86745000D01*
X115142143Y-86745000D01*
X114999285Y-86816429D01*
X114927857Y-86887857D01*
X114856428Y-87030714D01*
X116427856Y-87602143D02*
X116427856Y-87673571D01*
X116356428Y-87816429D01*
X116284999Y-87887857D01*
X119070714Y-87530714D02*
X118999285Y-87602143D01*
X118784999Y-87673571D01*
X118642142Y-87673571D01*
X118427857Y-87602143D01*
X118284999Y-87459286D01*
X118213571Y-87316429D01*
X118142142Y-87030714D01*
X118142142Y-86816429D01*
X118213571Y-86530714D01*
X118284999Y-86387857D01*
X118427857Y-86245000D01*
X118642142Y-86173571D01*
X118784999Y-86173571D01*
X118999285Y-86245000D01*
X119070714Y-86316429D01*
X120570714Y-87530714D02*
X120499285Y-87602143D01*
X120284999Y-87673571D01*
X120142142Y-87673571D01*
X119927857Y-87602143D01*
X119784999Y-87459286D01*
X119713571Y-87316429D01*
X119642142Y-87030714D01*
X119642142Y-86816429D01*
X119713571Y-86530714D01*
X119784999Y-86387857D01*
X119927857Y-86245000D01*
X120142142Y-86173571D01*
X120284999Y-86173571D01*
X120499285Y-86245000D01*
X120570714Y-86316429D01*
X121213571Y-87102143D02*
X122356428Y-87102143D01*
X123570714Y-86887857D02*
X123785000Y-86959286D01*
X123856428Y-87030714D01*
X123927857Y-87173571D01*
X123927857Y-87387857D01*
X123856428Y-87530714D01*
X123785000Y-87602143D01*
X123642142Y-87673571D01*
X123070714Y-87673571D01*
X123070714Y-86173571D01*
X123570714Y-86173571D01*
X123713571Y-86245000D01*
X123785000Y-86316429D01*
X123856428Y-86459286D01*
X123856428Y-86602143D01*
X123785000Y-86745000D01*
X123713571Y-86816429D01*
X123570714Y-86887857D01*
X123070714Y-86887857D01*
X124856428Y-86959286D02*
X124856428Y-87673571D01*
X124356428Y-86173571D02*
X124856428Y-86959286D01*
X125356428Y-86173571D01*
X125856428Y-87102143D02*
X126999285Y-87102143D01*
X127642142Y-87602143D02*
X127856428Y-87673571D01*
X128213571Y-87673571D01*
X128356428Y-87602143D01*
X128427857Y-87530714D01*
X128499285Y-87387857D01*
X128499285Y-87245000D01*
X128427857Y-87102143D01*
X128356428Y-87030714D01*
X128213571Y-86959286D01*
X127927857Y-86887857D01*
X127784999Y-86816429D01*
X127713571Y-86745000D01*
X127642142Y-86602143D01*
X127642142Y-86459286D01*
X127713571Y-86316429D01*
X127784999Y-86245000D01*
X127927857Y-86173571D01*
X128284999Y-86173571D01*
X128499285Y-86245000D01*
X129070713Y-87245000D02*
X129784999Y-87245000D01*
X128927856Y-87673571D02*
X129427856Y-86173571D01*
X129927856Y-87673571D01*
X56070858Y-79442571D02*
X56928001Y-79442571D01*
X56499430Y-80942571D02*
X56499430Y-79442571D01*
X58213715Y-80942571D02*
X57356572Y-80942571D01*
X57785144Y-80942571D02*
X57785144Y-79442571D01*
X57642287Y-79656857D01*
X57499429Y-79799714D01*
X57356572Y-79871143D01*
X58856572Y-80799714D02*
X58928000Y-80871143D01*
X58856572Y-80942571D01*
X58785143Y-80871143D01*
X58856572Y-80799714D01*
X58856572Y-80942571D01*
X60213715Y-79442571D02*
X59928001Y-79442571D01*
X59785144Y-79514000D01*
X59713715Y-79585429D01*
X59570858Y-79799714D01*
X59499429Y-80085429D01*
X59499429Y-80656857D01*
X59570858Y-80799714D01*
X59642286Y-80871143D01*
X59785144Y-80942571D01*
X60070858Y-80942571D01*
X60213715Y-80871143D01*
X60285144Y-80799714D01*
X60356572Y-80656857D01*
X60356572Y-80299714D01*
X60285144Y-80156857D01*
X60213715Y-80085429D01*
X60070858Y-80014000D01*
X59785144Y-80014000D01*
X59642286Y-80085429D01*
X59570858Y-80156857D01*
X59499429Y-80299714D01*
X60928000Y-80514000D02*
X61642286Y-80514000D01*
X60785143Y-80942571D02*
X61285143Y-79442571D01*
X61785143Y-80942571D01*
X68937715Y-79442571D02*
X69794858Y-79442571D01*
X69366287Y-80942571D02*
X69366287Y-79442571D01*
X71009144Y-79442571D02*
X70294858Y-79442571D01*
X70223429Y-80156857D01*
X70294858Y-80085429D01*
X70437715Y-80014000D01*
X70794858Y-80014000D01*
X70937715Y-80085429D01*
X71009144Y-80156857D01*
X71080572Y-80299714D01*
X71080572Y-80656857D01*
X71009144Y-80799714D01*
X70937715Y-80871143D01*
X70794858Y-80942571D01*
X70437715Y-80942571D01*
X70294858Y-80871143D01*
X70223429Y-80799714D01*
X72009143Y-79442571D02*
X72152000Y-79442571D01*
X72294857Y-79514000D01*
X72366286Y-79585429D01*
X72437715Y-79728286D01*
X72509143Y-80014000D01*
X72509143Y-80371143D01*
X72437715Y-80656857D01*
X72366286Y-80799714D01*
X72294857Y-80871143D01*
X72152000Y-80942571D01*
X72009143Y-80942571D01*
X71866286Y-80871143D01*
X71794857Y-80799714D01*
X71723429Y-80656857D01*
X71652000Y-80371143D01*
X71652000Y-80014000D01*
X71723429Y-79728286D01*
X71794857Y-79585429D01*
X71866286Y-79514000D01*
X72009143Y-79442571D01*
X73437714Y-79442571D02*
X73580571Y-79442571D01*
X73723428Y-79514000D01*
X73794857Y-79585429D01*
X73866286Y-79728286D01*
X73937714Y-80014000D01*
X73937714Y-80371143D01*
X73866286Y-80656857D01*
X73794857Y-80799714D01*
X73723428Y-80871143D01*
X73580571Y-80942571D01*
X73437714Y-80942571D01*
X73294857Y-80871143D01*
X73223428Y-80799714D01*
X73152000Y-80656857D01*
X73080571Y-80371143D01*
X73080571Y-80014000D01*
X73152000Y-79728286D01*
X73223428Y-79585429D01*
X73294857Y-79514000D01*
X73437714Y-79442571D01*
X74580571Y-80942571D02*
X74580571Y-79942571D01*
X74580571Y-80085429D02*
X74651999Y-80014000D01*
X74794857Y-79942571D01*
X75009142Y-79942571D01*
X75151999Y-80014000D01*
X75223428Y-80156857D01*
X75223428Y-80942571D01*
X75223428Y-80156857D02*
X75294857Y-80014000D01*
X75437714Y-79942571D01*
X75651999Y-79942571D01*
X75794857Y-80014000D01*
X75866285Y-80156857D01*
X75866285Y-80942571D01*
X76509142Y-80514000D02*
X77223428Y-80514000D01*
X76366285Y-80942571D02*
X76866285Y-79442571D01*
X77366285Y-80942571D01*
D12*
X134829429Y-78774857D02*
X134429429Y-78203429D01*
X134143714Y-78774857D02*
X134143714Y-77574857D01*
X134600857Y-77574857D01*
X134715143Y-77632000D01*
X134772286Y-77689143D01*
X134829429Y-77803429D01*
X134829429Y-77974857D01*
X134772286Y-78089143D01*
X134715143Y-78146286D01*
X134600857Y-78203429D01*
X134143714Y-78203429D01*
X135343714Y-78146286D02*
X135743714Y-78146286D01*
X135915143Y-78774857D02*
X135343714Y-78774857D01*
X135343714Y-77574857D01*
X135915143Y-77574857D01*
X137000857Y-78774857D02*
X136429428Y-78774857D01*
X136429428Y-77574857D01*
X134372286Y-74272857D02*
X134600857Y-74272857D01*
X134715143Y-74330000D01*
X134829429Y-74444286D01*
X134886571Y-74672857D01*
X134886571Y-75072857D01*
X134829429Y-75301429D01*
X134715143Y-75415714D01*
X134600857Y-75472857D01*
X134372286Y-75472857D01*
X134258000Y-75415714D01*
X134143714Y-75301429D01*
X134086571Y-75072857D01*
X134086571Y-74672857D01*
X134143714Y-74444286D01*
X134258000Y-74330000D01*
X134372286Y-74272857D01*
X135400857Y-75472857D02*
X135400857Y-74272857D01*
X136086572Y-75472857D01*
X136086572Y-74272857D01*
X135788286Y-67218000D02*
X135674000Y-67160857D01*
X135502571Y-67160857D01*
X135331143Y-67218000D01*
X135216857Y-67332286D01*
X135159714Y-67446571D01*
X135102571Y-67675143D01*
X135102571Y-67846571D01*
X135159714Y-68075143D01*
X135216857Y-68189429D01*
X135331143Y-68303714D01*
X135502571Y-68360857D01*
X135616857Y-68360857D01*
X135788286Y-68303714D01*
X135845429Y-68246571D01*
X135845429Y-67846571D01*
X135616857Y-67846571D01*
X136359714Y-68360857D02*
X136359714Y-67160857D01*
X137045429Y-68360857D01*
X137045429Y-67160857D01*
X137616857Y-68360857D02*
X137616857Y-67160857D01*
X137902572Y-67160857D01*
X138074000Y-67218000D01*
X138188286Y-67332286D01*
X138245429Y-67446571D01*
X138302572Y-67675143D01*
X138302572Y-67846571D01*
X138245429Y-68075143D01*
X138188286Y-68189429D01*
X138074000Y-68303714D01*
X137902572Y-68360857D01*
X137616857Y-68360857D01*
X135731143Y-65128857D02*
X135159714Y-65128857D01*
X135102571Y-65700286D01*
X135159714Y-65643143D01*
X135274000Y-65586000D01*
X135559714Y-65586000D01*
X135674000Y-65643143D01*
X135731143Y-65700286D01*
X135788286Y-65814571D01*
X135788286Y-66100286D01*
X135731143Y-66214571D01*
X135674000Y-66271714D01*
X135559714Y-66328857D01*
X135274000Y-66328857D01*
X135159714Y-66271714D01*
X135102571Y-66214571D01*
X136131143Y-65128857D02*
X136531143Y-66328857D01*
X136931143Y-65128857D01*
X135845429Y-62264857D02*
X135445429Y-61693429D01*
X135159714Y-62264857D02*
X135159714Y-61064857D01*
X135616857Y-61064857D01*
X135731143Y-61122000D01*
X135788286Y-61179143D01*
X135845429Y-61293429D01*
X135845429Y-61464857D01*
X135788286Y-61579143D01*
X135731143Y-61636286D01*
X135616857Y-61693429D01*
X135159714Y-61693429D01*
X136359714Y-61636286D02*
X136759714Y-61636286D01*
X136931143Y-62264857D02*
X136359714Y-62264857D01*
X136359714Y-61064857D01*
X136931143Y-61064857D01*
X138016857Y-62264857D02*
X137445428Y-62264857D01*
X137445428Y-61064857D01*
D13*
X55118000Y-70612000D02*
X53086000Y-70612000D01*
X53086000Y-70612000D02*
X53594000Y-71120000D01*
X53594000Y-71120000D02*
X53594000Y-70104000D01*
X53594000Y-70104000D02*
X53086000Y-70612000D01*
X53594000Y-75184000D02*
X53086000Y-75692000D01*
X53594000Y-76200000D02*
X53594000Y-75184000D01*
X53086000Y-75692000D02*
X53594000Y-76200000D01*
X55118000Y-75692000D02*
X53086000Y-75692000D01*
X53086000Y-53848000D02*
X55118000Y-53848000D01*
X55118000Y-53848000D02*
X54610000Y-53340000D01*
X54610000Y-53340000D02*
X54610000Y-54356000D01*
X54610000Y-54356000D02*
X55118000Y-53848000D01*
X54610000Y-59436000D02*
X55118000Y-58928000D01*
X54610000Y-58420000D02*
X54610000Y-59436000D01*
X55118000Y-58928000D02*
X54610000Y-58420000D01*
X53086000Y-58928000D02*
X55118000Y-58928000D01*
D11*
X53903429Y-78910571D02*
X53189143Y-78910571D01*
X53189143Y-77410571D01*
X53189143Y-73830571D02*
X53189143Y-72330571D01*
X54046286Y-73830571D01*
X54046286Y-72330571D01*
X53189143Y-57066571D02*
X53189143Y-55566571D01*
X54046286Y-57066571D01*
X54046286Y-55566571D01*
X53903429Y-62146571D02*
X53189143Y-62146571D01*
X53189143Y-60646571D01*
D12*
X53848000Y-67056000D02*
X53848000Y-68326000D01*
X52578000Y-68326000D02*
X55118000Y-68326000D01*
X52959000Y-68834000D02*
X54737000Y-68834000D01*
X53467000Y-69342000D02*
X54229000Y-69342000D01*
X53467000Y-52578000D02*
X54229000Y-52578000D01*
X52959000Y-52070000D02*
X54737000Y-52070000D01*
X52578000Y-51562000D02*
X55118000Y-51562000D01*
X53848000Y-50292000D02*
X53848000Y-51562000D01*
D14*
X62611000Y-82550000D02*
X64262000Y-80073500D01*
X64262000Y-80073500D02*
X64389000Y-80518000D01*
X64389000Y-80518000D02*
X62992000Y-82296000D01*
X62992000Y-82296000D02*
X64135000Y-82423000D01*
X65151000Y-80137000D02*
X63373000Y-82169000D01*
X63373000Y-82169000D02*
X64643000Y-82169000D01*
X65151000Y-80137000D02*
X64389000Y-80645000D01*
X62611000Y-82550000D02*
X64008000Y-82550000D01*
X64008000Y-82550000D02*
X62738000Y-85090000D01*
X62865000Y-84963000D02*
X64643000Y-82169000D01*
X62738000Y-84328000D02*
X62611000Y-85344000D01*
X62611000Y-85344000D02*
X63373000Y-84709000D01*
X77089000Y-47498000D02*
X78740000Y-45021500D01*
X78740000Y-45021500D02*
X78867000Y-45466000D01*
X78867000Y-45466000D02*
X77470000Y-47244000D01*
X77470000Y-47244000D02*
X78613000Y-47371000D01*
X79629000Y-45085000D02*
X77851000Y-47117000D01*
X77851000Y-47117000D02*
X79121000Y-47117000D01*
X79629000Y-45085000D02*
X78867000Y-45593000D01*
X77089000Y-47498000D02*
X78486000Y-47498000D01*
X78486000Y-47498000D02*
X77216000Y-50038000D01*
X77343000Y-49911000D02*
X79121000Y-47117000D01*
X77216000Y-49276000D02*
X77089000Y-50292000D01*
X77089000Y-50292000D02*
X77851000Y-49657000D01*
D15*
X105410000Y-82232500D02*
X105410000Y-82613500D01*
X105410000Y-81216500D02*
X105410000Y-81597500D01*
X105410000Y-81597500D02*
X105791000Y-82232500D01*
X105791000Y-82232500D02*
X105029000Y-82232500D01*
X105029000Y-82232500D02*
X105410000Y-81597500D01*
X105918000Y-81597500D02*
X104902000Y-81597500D01*
X104510000Y-79915000D02*
X104510000Y-83455000D01*
X106310000Y-79915000D02*
X106310000Y-83455000D01*
X133180000Y-77555000D02*
X131280000Y-77555000D01*
X133180000Y-78655000D02*
X131280000Y-78655000D01*
X132280000Y-78105000D02*
X131830000Y-78105000D01*
X132330000Y-78355000D02*
X132330000Y-77855000D01*
X132330000Y-78105000D02*
X132080000Y-78355000D01*
X132080000Y-78355000D02*
X132080000Y-77855000D01*
X132080000Y-77855000D02*
X132330000Y-78105000D01*
X133180000Y-74380000D02*
X131280000Y-74380000D01*
X133180000Y-75480000D02*
X131280000Y-75480000D01*
X132280000Y-74930000D02*
X131830000Y-74930000D01*
X132330000Y-75180000D02*
X132330000Y-74680000D01*
X132330000Y-74930000D02*
X132080000Y-75180000D01*
X132080000Y-75180000D02*
X132080000Y-74680000D01*
X132080000Y-74680000D02*
X132330000Y-74930000D01*
X65760000Y-53700000D02*
X62960000Y-53700000D01*
X58960000Y-53700000D02*
X56160000Y-53700000D01*
X58960000Y-76200000D02*
X56160000Y-76200000D01*
X56160000Y-76200000D02*
X56160000Y-53700000D01*
X65760000Y-76200000D02*
X65760000Y-53700000D01*
X65760000Y-76200000D02*
X62960000Y-76200000D01*
X78460000Y-53700000D02*
X75660000Y-53700000D01*
X71660000Y-53700000D02*
X68860000Y-53700000D01*
X71660000Y-76200000D02*
X68860000Y-76200000D01*
X68860000Y-76200000D02*
X68860000Y-53700000D01*
X78460000Y-76200000D02*
X78460000Y-53700000D01*
X78460000Y-76200000D02*
X75660000Y-76200000D01*
X101600000Y-82296000D02*
X101600000Y-81788000D01*
X99060000Y-82296000D02*
X99060000Y-81788000D01*
X89916000Y-81788000D02*
X91440000Y-81788000D01*
X83820000Y-81788000D02*
X85344000Y-81788000D01*
X89408000Y-81788000D02*
X86106000Y-82804000D01*
X91440000Y-82296000D02*
X91440000Y-81788000D01*
X83820000Y-81788000D02*
X83820000Y-82296000D01*
X85852000Y-81788000D02*
G75*
G03X85852000Y-81788000I-254000J0D01*
G01*
X89916000Y-81788000D02*
G75*
G03X89916000Y-81788000I-254000J0D01*
G01*
X99695000Y-81153000D02*
G75*
G03X99060000Y-81788000I0J-635000D01*
G01*
X100330000Y-81788000D02*
G75*
G03X99695000Y-81153000I-635000J0D01*
G01*
X100965000Y-81153000D02*
G75*
G03X100330000Y-81788000I0J-635000D01*
G01*
X101600000Y-81788000D02*
G75*
G03X100965000Y-81153000I-635000J0D01*
G01*
X82710000Y-79870000D02*
X102710000Y-79870000D01*
X102710000Y-79870000D02*
X102710000Y-84870000D01*
X82710000Y-84870000D02*
X82710000Y-79870000D01*
X102710000Y-84870000D02*
X82710000Y-84870000D01*
X48890000Y-61435000D02*
G75*
G03X48890000Y-61435000I-2000000J0D01*
G01*
X42890000Y-58935000D02*
X42390000Y-58935000D01*
X42890000Y-53935000D02*
X42390000Y-53935000D01*
X48890000Y-56435000D02*
G75*
G03X48890000Y-56435000I-2000000J0D01*
G01*
X48890000Y-51435000D02*
G75*
G03X48890000Y-51435000I-2000000J0D01*
G01*
X44390000Y-48935000D02*
X44390000Y-63935000D01*
X49290000Y-48935000D02*
X49290000Y-63935000D01*
X42890000Y-48935000D02*
X42890000Y-63935000D01*
X42390000Y-48935000D02*
X42390000Y-63935000D01*
X42390000Y-63935000D02*
X52190000Y-63935000D01*
X52190000Y-63935000D02*
X52190000Y-48935000D01*
X52190000Y-48935000D02*
X42390000Y-48935000D01*
X48890000Y-77945000D02*
G75*
G03X48890000Y-77945000I-2000000J0D01*
G01*
X42890000Y-75445000D02*
X42390000Y-75445000D01*
X42890000Y-70445000D02*
X42390000Y-70445000D01*
X48890000Y-72945000D02*
G75*
G03X48890000Y-72945000I-2000000J0D01*
G01*
X48890000Y-67945000D02*
G75*
G03X48890000Y-67945000I-2000000J0D01*
G01*
X44390000Y-65445000D02*
X44390000Y-80445000D01*
X49290000Y-65445000D02*
X49290000Y-80445000D01*
X42890000Y-65445000D02*
X42890000Y-80445000D01*
X42390000Y-65445000D02*
X42390000Y-80445000D01*
X42390000Y-80445000D02*
X52190000Y-80445000D01*
X52190000Y-80445000D02*
X52190000Y-65445000D01*
X52190000Y-65445000D02*
X42390000Y-65445000D01*
D14*
X133245860Y-64670940D02*
X133746240Y-64670940D01*
X133245860Y-64869060D02*
X133245860Y-64670940D01*
X133746240Y-64869060D02*
X133245860Y-64869060D01*
X134244080Y-69771260D02*
X134244080Y-59768740D01*
X133746240Y-60269120D02*
X133746240Y-69270880D01*
X129745740Y-69771260D02*
X129745740Y-59768740D01*
X133245860Y-66672460D02*
X133746240Y-66672460D01*
X133245860Y-66870580D02*
X133245860Y-66672460D01*
X133746240Y-66870580D02*
X133245860Y-66870580D01*
X133746240Y-62870080D02*
X133245860Y-62870080D01*
X133245860Y-62870080D02*
X133245860Y-62671960D01*
X133245860Y-62671960D02*
X133746240Y-62671960D01*
X130944620Y-59768740D02*
X130944620Y-60269120D01*
X132245100Y-60269120D02*
X132245100Y-59768740D01*
X132245100Y-69270880D02*
X132245100Y-69771260D01*
X130944620Y-69270880D02*
X130944620Y-69771260D01*
X129745740Y-67271900D02*
X130246120Y-67271900D01*
X130246120Y-67271900D02*
X130246120Y-69270880D01*
X130246120Y-69270880D02*
X133746240Y-69270880D01*
X133746240Y-60269120D02*
X130246120Y-60269120D01*
X130246120Y-60269120D02*
X130246120Y-62268100D01*
X130246120Y-62268100D02*
X129745740Y-62268100D01*
X129745740Y-69771260D02*
X134244080Y-69771260D01*
X129745740Y-59768740D02*
X134244080Y-59768740D01*
X129745740Y-68072000D02*
X129545080Y-68072000D01*
X129545080Y-68072000D02*
X129545080Y-68371720D01*
X129545080Y-68371720D02*
X129745740Y-68371720D01*
D15*
X129405000Y-78780000D02*
X128405000Y-78780000D01*
X128405000Y-77430000D02*
X129405000Y-77430000D01*
X129405000Y-75605000D02*
X128405000Y-75605000D01*
X128405000Y-74255000D02*
X129405000Y-74255000D01*
X109220000Y-60960000D02*
X114300000Y-66040000D01*
X101600000Y-53340000D02*
X106680000Y-58420000D01*
X106680000Y-60960000D02*
X111760000Y-66040000D01*
X99060000Y-53340000D02*
X104140000Y-58420000D01*
X104140000Y-60960000D02*
X109220000Y-66040000D01*
X96520000Y-53340000D02*
X101600000Y-58420000D01*
X101600000Y-60960000D02*
X106680000Y-66040000D01*
X93980000Y-53340000D02*
X99060000Y-58420000D01*
D16*
X83590000Y-42320000D02*
X127290000Y-42320000D01*
D10*
X127290000Y-42320000D02*
X127290000Y-74520000D01*
X127290000Y-74520000D02*
X83590000Y-74520000D01*
X83590000Y-42320000D02*
X83590000Y-74520000D01*
D15*
X111760000Y-53340000D02*
X114300000Y-55880000D01*
X109220000Y-53340000D02*
X114300000Y-58420000D01*
X106680000Y-53340000D02*
X114300000Y-60960000D01*
X104140000Y-53340000D02*
X114300000Y-63500000D01*
X93980000Y-55880000D02*
X104140000Y-66040000D01*
X93980000Y-58420000D02*
X101600000Y-66040000D01*
X93980000Y-60960000D02*
X99060000Y-66040000D01*
X93980000Y-63500000D02*
X96520000Y-66040000D01*
X93980000Y-53340000D02*
X93980000Y-66040000D01*
X93980000Y-66040000D02*
X114300000Y-66040000D01*
X114300000Y-66040000D02*
X114300000Y-53340000D01*
X114300000Y-53340000D02*
X93980000Y-53340000D01*
X88590000Y-69520000D02*
X122290000Y-69520000D01*
X122290000Y-69520000D02*
X122290000Y-47320000D01*
X88590000Y-47320000D02*
X122290000Y-47320000D01*
X88590000Y-69520000D02*
X88590000Y-47320000D01*
X70675000Y-44660000D02*
X55175000Y-44660000D01*
X70675000Y-49660000D02*
X55175000Y-49660000D01*
X55175000Y-49660000D02*
X55175000Y-44660000D01*
X70675000Y-49660000D02*
X70675000Y-44660000D01*
D12*
X107952857Y-82800714D02*
X106752857Y-82800714D01*
X106752857Y-82514999D01*
X106810000Y-82343571D01*
X106924286Y-82229285D01*
X107038571Y-82172142D01*
X107267143Y-82114999D01*
X107438571Y-82114999D01*
X107667143Y-82172142D01*
X107781429Y-82229285D01*
X107895714Y-82343571D01*
X107952857Y-82514999D01*
X107952857Y-82800714D01*
X107952857Y-80972142D02*
X107952857Y-81657857D01*
X107952857Y-81314999D02*
X106752857Y-81314999D01*
X106924286Y-81429285D01*
X107038571Y-81543571D01*
X107095714Y-81657857D01*
X131194286Y-80552857D02*
X131194286Y-79352857D01*
X131480001Y-79352857D01*
X131651429Y-79410000D01*
X131765715Y-79524286D01*
X131822858Y-79638571D01*
X131880001Y-79867143D01*
X131880001Y-80038571D01*
X131822858Y-80267143D01*
X131765715Y-80381429D01*
X131651429Y-80495714D01*
X131480001Y-80552857D01*
X131194286Y-80552857D01*
X132337143Y-79467143D02*
X132394286Y-79410000D01*
X132508572Y-79352857D01*
X132794286Y-79352857D01*
X132908572Y-79410000D01*
X132965715Y-79467143D01*
X133022858Y-79581429D01*
X133022858Y-79695714D01*
X132965715Y-79867143D01*
X132280001Y-80552857D01*
X133022858Y-80552857D01*
X131194286Y-73567857D02*
X131194286Y-72367857D01*
X131480001Y-72367857D01*
X131651429Y-72425000D01*
X131765715Y-72539286D01*
X131822858Y-72653571D01*
X131880001Y-72882143D01*
X131880001Y-73053571D01*
X131822858Y-73282143D01*
X131765715Y-73396429D01*
X131651429Y-73510714D01*
X131480001Y-73567857D01*
X131194286Y-73567857D01*
X132280001Y-72367857D02*
X133022858Y-72367857D01*
X132622858Y-72825000D01*
X132794286Y-72825000D01*
X132908572Y-72882143D01*
X132965715Y-72939286D01*
X133022858Y-73053571D01*
X133022858Y-73339286D01*
X132965715Y-73453571D01*
X132908572Y-73510714D01*
X132794286Y-73567857D01*
X132451429Y-73567857D01*
X132337143Y-73510714D01*
X132280001Y-73453571D01*
X56496000Y-78146286D02*
X56096000Y-78146286D01*
X56096000Y-78774857D02*
X56096000Y-77574857D01*
X56667429Y-77574857D01*
X57753143Y-78774857D02*
X57067428Y-78774857D01*
X57410286Y-78774857D02*
X57410286Y-77574857D01*
X57296000Y-77746286D01*
X57181714Y-77860571D01*
X57067428Y-77917714D01*
X69196000Y-78146286D02*
X68796000Y-78146286D01*
X68796000Y-78774857D02*
X68796000Y-77574857D01*
X69367429Y-77574857D01*
X69767428Y-77689143D02*
X69824571Y-77632000D01*
X69938857Y-77574857D01*
X70224571Y-77574857D01*
X70338857Y-77632000D01*
X70396000Y-77689143D01*
X70453143Y-77803429D01*
X70453143Y-77917714D01*
X70396000Y-78089143D01*
X69710286Y-78774857D01*
X70453143Y-78774857D01*
X100714286Y-79282857D02*
X100714286Y-78082857D01*
X101400001Y-79282857D02*
X100885715Y-78597143D01*
X101400001Y-78082857D02*
X100714286Y-78768571D01*
X102542858Y-79282857D02*
X101857143Y-79282857D01*
X102200001Y-79282857D02*
X102200001Y-78082857D01*
X102085715Y-78254286D01*
X101971429Y-78368571D01*
X101857143Y-78425714D01*
X49914286Y-48167857D02*
X49914286Y-46967857D01*
X50371429Y-46967857D01*
X50485715Y-47025000D01*
X50542858Y-47082143D01*
X50600001Y-47196429D01*
X50600001Y-47367857D01*
X50542858Y-47482143D01*
X50485715Y-47539286D01*
X50371429Y-47596429D01*
X49914286Y-47596429D01*
X51742858Y-48167857D02*
X51057143Y-48167857D01*
X51400001Y-48167857D02*
X51400001Y-46967857D01*
X51285715Y-47139286D01*
X51171429Y-47253571D01*
X51057143Y-47310714D01*
X49914286Y-82457857D02*
X49914286Y-81257857D01*
X50371429Y-81257857D01*
X50485715Y-81315000D01*
X50542858Y-81372143D01*
X50600001Y-81486429D01*
X50600001Y-81657857D01*
X50542858Y-81772143D01*
X50485715Y-81829286D01*
X50371429Y-81886429D01*
X49914286Y-81886429D01*
X51057143Y-81372143D02*
X51114286Y-81315000D01*
X51228572Y-81257857D01*
X51514286Y-81257857D01*
X51628572Y-81315000D01*
X51685715Y-81372143D01*
X51742858Y-81486429D01*
X51742858Y-81600714D01*
X51685715Y-81772143D01*
X51000001Y-82457857D01*
X51742858Y-82457857D01*
X130559286Y-58962857D02*
X130559286Y-57762857D01*
X131016429Y-57762857D01*
X131130715Y-57820000D01*
X131187858Y-57877143D01*
X131245001Y-57991429D01*
X131245001Y-58162857D01*
X131187858Y-58277143D01*
X131130715Y-58334286D01*
X131016429Y-58391429D01*
X130559286Y-58391429D01*
X131645001Y-57762857D02*
X132387858Y-57762857D01*
X131987858Y-58220000D01*
X132159286Y-58220000D01*
X132273572Y-58277143D01*
X132330715Y-58334286D01*
X132387858Y-58448571D01*
X132387858Y-58734286D01*
X132330715Y-58848571D01*
X132273572Y-58905714D01*
X132159286Y-58962857D01*
X131816429Y-58962857D01*
X131702143Y-58905714D01*
X131645001Y-58848571D01*
X128705001Y-80552857D02*
X128305001Y-79981429D01*
X128019286Y-80552857D02*
X128019286Y-79352857D01*
X128476429Y-79352857D01*
X128590715Y-79410000D01*
X128647858Y-79467143D01*
X128705001Y-79581429D01*
X128705001Y-79752857D01*
X128647858Y-79867143D01*
X128590715Y-79924286D01*
X128476429Y-79981429D01*
X128019286Y-79981429D01*
X129847858Y-80552857D02*
X129162143Y-80552857D01*
X129505001Y-80552857D02*
X129505001Y-79352857D01*
X129390715Y-79524286D01*
X129276429Y-79638571D01*
X129162143Y-79695714D01*
X128705001Y-73567857D02*
X128305001Y-72996429D01*
X128019286Y-73567857D02*
X128019286Y-72367857D01*
X128476429Y-72367857D01*
X128590715Y-72425000D01*
X128647858Y-72482143D01*
X128705001Y-72596429D01*
X128705001Y-72767857D01*
X128647858Y-72882143D01*
X128590715Y-72939286D01*
X128476429Y-72996429D01*
X128019286Y-72996429D01*
X129162143Y-72482143D02*
X129219286Y-72425000D01*
X129333572Y-72367857D01*
X129619286Y-72367857D01*
X129733572Y-72425000D01*
X129790715Y-72482143D01*
X129847858Y-72596429D01*
X129847858Y-72710714D01*
X129790715Y-72882143D01*
X129105001Y-73567857D01*
X129847858Y-73567857D01*
X104525715Y-45062857D02*
X105211429Y-45062857D01*
X104868572Y-46262857D02*
X104868572Y-45062857D01*
X106240001Y-46262857D02*
X105554286Y-46262857D01*
X105897144Y-46262857D02*
X105897144Y-45062857D01*
X105782858Y-45234286D01*
X105668572Y-45348571D01*
X105554286Y-45405714D01*
D15*
X98830475Y-60142381D02*
X98830475Y-59142381D01*
X99401904Y-60142381D01*
X99401904Y-59142381D01*
X100020951Y-60142381D02*
X99925713Y-60094762D01*
X99878094Y-60047143D01*
X99830475Y-59951905D01*
X99830475Y-59666190D01*
X99878094Y-59570952D01*
X99925713Y-59523333D01*
X100020951Y-59475714D01*
X100163809Y-59475714D01*
X100259047Y-59523333D01*
X100306666Y-59570952D01*
X100354285Y-59666190D01*
X100354285Y-59951905D01*
X100306666Y-60047143D01*
X100259047Y-60094762D01*
X100163809Y-60142381D01*
X100020951Y-60142381D01*
X101544761Y-60142381D02*
X101544761Y-59142381D01*
X101925714Y-59142381D01*
X102020952Y-59190000D01*
X102068571Y-59237619D01*
X102116190Y-59332857D01*
X102116190Y-59475714D01*
X102068571Y-59570952D01*
X102020952Y-59618571D01*
X101925714Y-59666190D01*
X101544761Y-59666190D01*
X103116190Y-60047143D02*
X103068571Y-60094762D01*
X102925714Y-60142381D01*
X102830476Y-60142381D01*
X102687618Y-60094762D01*
X102592380Y-59999524D01*
X102544761Y-59904286D01*
X102497142Y-59713810D01*
X102497142Y-59570952D01*
X102544761Y-59380476D01*
X102592380Y-59285238D01*
X102687618Y-59190000D01*
X102830476Y-59142381D01*
X102925714Y-59142381D01*
X103068571Y-59190000D01*
X103116190Y-59237619D01*
X103878095Y-59618571D02*
X104020952Y-59666190D01*
X104068571Y-59713810D01*
X104116190Y-59809048D01*
X104116190Y-59951905D01*
X104068571Y-60047143D01*
X104020952Y-60094762D01*
X103925714Y-60142381D01*
X103544761Y-60142381D01*
X103544761Y-59142381D01*
X103878095Y-59142381D01*
X103973333Y-59190000D01*
X104020952Y-59237619D01*
X104068571Y-59332857D01*
X104068571Y-59428095D01*
X104020952Y-59523333D01*
X103973333Y-59570952D01*
X103878095Y-59618571D01*
X103544761Y-59618571D01*
X105163809Y-59475714D02*
X105544761Y-59475714D01*
X105306666Y-59142381D02*
X105306666Y-59999524D01*
X105354285Y-60094762D01*
X105449523Y-60142381D01*
X105544761Y-60142381D01*
X105878095Y-60142381D02*
X105878095Y-59475714D01*
X105878095Y-59666190D02*
X105925714Y-59570952D01*
X105973333Y-59523333D01*
X106068571Y-59475714D01*
X106163810Y-59475714D01*
X106925715Y-60142381D02*
X106925715Y-59618571D01*
X106878096Y-59523333D01*
X106782858Y-59475714D01*
X106592381Y-59475714D01*
X106497143Y-59523333D01*
X106925715Y-60094762D02*
X106830477Y-60142381D01*
X106592381Y-60142381D01*
X106497143Y-60094762D01*
X106449524Y-59999524D01*
X106449524Y-59904286D01*
X106497143Y-59809048D01*
X106592381Y-59761429D01*
X106830477Y-59761429D01*
X106925715Y-59713810D01*
X107830477Y-60094762D02*
X107735239Y-60142381D01*
X107544762Y-60142381D01*
X107449524Y-60094762D01*
X107401905Y-60047143D01*
X107354286Y-59951905D01*
X107354286Y-59666190D01*
X107401905Y-59570952D01*
X107449524Y-59523333D01*
X107544762Y-59475714D01*
X107735239Y-59475714D01*
X107830477Y-59523333D01*
X108640001Y-60094762D02*
X108544763Y-60142381D01*
X108354286Y-60142381D01*
X108259048Y-60094762D01*
X108211429Y-59999524D01*
X108211429Y-59618571D01*
X108259048Y-59523333D01*
X108354286Y-59475714D01*
X108544763Y-59475714D01*
X108640001Y-59523333D01*
X108687620Y-59618571D01*
X108687620Y-59713810D01*
X108211429Y-59809048D01*
X109068572Y-60094762D02*
X109163810Y-60142381D01*
X109354286Y-60142381D01*
X109449525Y-60094762D01*
X109497144Y-59999524D01*
X109497144Y-59951905D01*
X109449525Y-59856667D01*
X109354286Y-59809048D01*
X109211429Y-59809048D01*
X109116191Y-59761429D01*
X109068572Y-59666190D01*
X109068572Y-59618571D01*
X109116191Y-59523333D01*
X109211429Y-59475714D01*
X109354286Y-59475714D01*
X109449525Y-59523333D01*
X116459048Y-58491429D02*
X117220953Y-58491429D01*
X116840001Y-58872381D02*
X116840001Y-58110476D01*
X116459048Y-50871429D02*
X117220953Y-50871429D01*
X91749524Y-63952381D02*
X91273333Y-63952381D01*
X91273333Y-62952381D01*
X91154286Y-53792381D02*
X91154286Y-52792381D01*
X91725715Y-53792381D01*
X91725715Y-52792381D01*
X61615476Y-43112381D02*
X61948809Y-44112381D01*
X62282143Y-43112381D01*
X63186905Y-44112381D02*
X62853571Y-43636190D01*
X62615476Y-44112381D02*
X62615476Y-43112381D01*
X62996429Y-43112381D01*
X63091667Y-43160000D01*
X63139286Y-43207619D01*
X63186905Y-43302857D01*
X63186905Y-43445714D01*
X63139286Y-43540952D01*
X63091667Y-43588571D01*
X62996429Y-43636190D01*
X62615476Y-43636190D01*
X64139286Y-44112381D02*
X63567857Y-44112381D01*
X63853571Y-44112381D02*
X63853571Y-43112381D01*
X63758333Y-43255238D01*
X63663095Y-43350476D01*
X63567857Y-43398095D01*
D12*
X48855714Y-45312857D02*
X48855714Y-44112857D01*
X48855714Y-44684286D02*
X49541429Y-44684286D01*
X49541429Y-45312857D02*
X49541429Y-44112857D01*
X50741429Y-45312857D02*
X50055714Y-45312857D01*
X50398572Y-45312857D02*
X50398572Y-44112857D01*
X50284286Y-44284286D01*
X50170000Y-44398571D01*
X50055714Y-44455714D01*
X48855714Y-85312857D02*
X48855714Y-84112857D01*
X48855714Y-84684286D02*
X49541429Y-84684286D01*
X49541429Y-85312857D02*
X49541429Y-84112857D01*
X50055714Y-84227143D02*
X50112857Y-84170000D01*
X50227143Y-84112857D01*
X50512857Y-84112857D01*
X50627143Y-84170000D01*
X50684286Y-84227143D01*
X50741429Y-84341429D01*
X50741429Y-84455714D01*
X50684286Y-84627143D01*
X49998572Y-85312857D01*
X50741429Y-85312857D01*
X128855714Y-85312857D02*
X128855714Y-84112857D01*
X128855714Y-84684286D02*
X129541429Y-84684286D01*
X129541429Y-85312857D02*
X129541429Y-84112857D01*
X129998572Y-84112857D02*
X130741429Y-84112857D01*
X130341429Y-84570000D01*
X130512857Y-84570000D01*
X130627143Y-84627143D01*
X130684286Y-84684286D01*
X130741429Y-84798571D01*
X130741429Y-85084286D01*
X130684286Y-85198571D01*
X130627143Y-85255714D01*
X130512857Y-85312857D01*
X130170000Y-85312857D01*
X130055714Y-85255714D01*
X129998572Y-85198571D01*
X128855714Y-45312857D02*
X128855714Y-44112857D01*
X128855714Y-44684286D02*
X129541429Y-44684286D01*
X129541429Y-45312857D02*
X129541429Y-44112857D01*
X130627143Y-44512857D02*
X130627143Y-45312857D01*
X130341429Y-44055714D02*
X130055714Y-44912857D01*
X130798572Y-44912857D01*
M02*
